<svg width="319" height="312" viewBox="0 0 319 312" fill="none" xmlns="http://www.w3.org/2000/svg">
<g id="bsc" clip-path="url(#clip0)">
<g id="Vector">
<mask id="path-1-inside-1" fill="white">
<path fill-rule="evenodd" clip-rule="evenodd" d="M199.608 156L159.431 116.563L129.713 145.704L119.126 156.062L159.367 195.437L199.608 156.062V156Z"/>
<path fill-rule="evenodd" clip-rule="evenodd" d="M97.5086 131.102L159.432 70.512L221.355 131.165L257.387 95.9088L159.432 0L61.477 95.8464L97.5086 131.102ZM0 156L36.0316 120.744L72.0633 156L36.0316 191.256L0 156ZM97.5086 180.898L159.432 241.488L221.355 180.835L257.451 216.091L159.432 312L61.4132 216.091L97.5086 180.898ZM246.801 156L282.832 120.744L318.864 156L282.832 191.256L246.801 156Z"/>
</mask>
<path fill-rule="evenodd" clip-rule="evenodd" d="M199.608 156L159.431 116.563L129.713 145.704L119.126 156.062L159.367 195.437L199.608 156.062V156Z" fill="#393939"/>
<path fill-rule="evenodd" clip-rule="evenodd" d="M97.5086 131.102L159.432 70.512L221.355 131.165L257.387 95.9088L159.432 0L61.477 95.8464L97.5086 131.102ZM0 156L36.0316 120.744L72.0633 156L36.0316 191.256L0 156ZM97.5086 180.898L159.432 241.488L221.355 180.835L257.451 216.091L159.432 312L61.4132 216.091L97.5086 180.898ZM246.801 156L282.832 120.744L318.864 156L282.832 191.256L246.801 156Z" fill="#393939"/>
<path fill-rule="evenodd" clip-rule="evenodd" d="M199.608 156L159.431 116.563L129.713 145.704L119.126 156.062L159.367 195.437L199.608 156.062V156Z" stroke="#393939" stroke-width="2" mask="url(#path-1-inside-1)"/>
<path fill-rule="evenodd" clip-rule="evenodd" d="M97.5086 131.102L159.432 70.512L221.355 131.165L257.387 95.9088L159.432 0L61.477 95.8464L97.5086 131.102ZM0 156L36.0316 120.744L72.0633 156L36.0316 191.256L0 156ZM97.5086 180.898L159.432 241.488L221.355 180.835L257.451 216.091L159.432 312L61.4132 216.091L97.5086 180.898ZM246.801 156L282.832 120.744L318.864 156L282.832 191.256L246.801 156Z" stroke="#393939" stroke-width="2" mask="url(#path-1-inside-1)"/>
</g>
</g>
<defs>
<clipPath id="clip0">
<rect width="318.63" height="312" fill="white"/>
</clipPath>
</defs>
</svg>
