<svg width="319" height="312" viewBox="0 0 319 312" fill="none" xmlns="http://www.w3.org/2000/svg">
<g id="ftm" clip-path="url(#clip0)">
<path id="Vector" fill-rule="evenodd" clip-rule="evenodd" d="M234.598 249.686L159.221 293.656L83.8442 249.686V172.739L159.221 216.709L234.598 172.739V249.686ZM65 161.5V259.108L159.221 312.5L253.442 259.108V161.5L159.221 216.709L65 161.5Z" fill="#393939"/>
<path id="Vector_2" fill-rule="evenodd" clip-rule="evenodd" d="M178.065 108.354L234.598 75.3769V141.332L178.065 108.354ZM83.8442 75.3769L140.377 108.354L83.8442 141.332V75.3769ZM168.643 124.058L225.176 157.035L168.643 190.013V124.058ZM149.799 190.013L93.2663 157.035L149.799 124.058V190.013ZM225.176 59.6734L159.221 97.3618L93.2663 59.6734L159.221 20.4146L225.176 59.6734ZM65 53.392V162L83.8442 172.739L159.221 216.709L253.442 162V53.392L159.221 0L65 53.392Z" fill="#393939"/>
</g>
<defs>
<clipPath id="clip0">
<rect width="318.63" height="312" fill="white"/>
</clipPath>
</defs>
</svg>
